<svg width="40" height="40" viewBox="0 0 40 40" fill="none" xmlns="http://www.w3.org/2000/svg">
<mask id="mask0_29_454" style="mask-type:alpha" maskUnits="userSpaceOnUse" x="0" y="0" width="40" height="40">
<rect width="40" height="40" fill="#D9D9D9"/>
</mask>
<g mask="url(#mask0_29_454)">
<path d="M9.74967 28.0067C11.1663 26.938 12.7497 26.0953 14.4997 25.4788C16.2497 24.8622 18.083 24.554 19.9997 24.554C21.9163 24.554 23.7497 24.8622 25.4997 25.4788C27.2497 26.0953 28.833 26.938 30.2497 28.0067C31.2219 26.8832 31.9788 25.609 32.5205 24.184C33.0622 22.7591 33.333 21.2383 33.333 19.6216C33.333 15.977 32.0344 12.8737 29.4372 10.3116C26.84 7.74951 23.6941 6.46845 19.9997 6.46845C16.3052 6.46845 13.1594 7.74951 10.5622 10.3116C7.96495 12.8737 6.66634 15.977 6.66634 19.6216C6.66634 21.2383 6.93717 22.7591 7.47884 24.184C8.02051 25.609 8.77745 26.8832 9.74967 28.0067ZM15.8538 19.601C14.7288 18.4912 14.1663 17.1279 14.1663 15.5112C14.1663 13.8945 14.7288 12.5312 15.8538 11.4214C16.9788 10.3116 18.3608 9.75673 19.9997 9.75673C21.6386 9.75673 23.0205 10.3116 24.1455 11.4214C25.2705 12.5312 25.833 13.8945 25.833 15.5112C25.833 17.1279 25.2705 18.4912 24.1455 19.601C23.0205 20.7108 21.6386 21.2657 19.9997 21.2657C18.3608 21.2657 16.9788 20.7108 15.8538 19.601ZM19.9997 36.0629C17.6941 36.0629 15.5275 35.6313 13.4997 34.7682C11.4719 33.905 9.70801 32.7336 8.20801 31.2538C6.70801 29.7741 5.52051 28.0341 4.64551 26.0337C3.77051 24.0333 3.33301 21.8959 3.33301 19.6216C3.33301 17.3472 3.77051 15.2098 4.64551 13.2094C5.52051 11.209 6.70801 9.469 8.20801 7.98928C9.70801 6.50955 11.4719 5.33811 13.4997 4.47493C15.5275 3.61176 17.6941 3.18018 19.9997 3.18018C22.3052 3.18018 24.4719 3.61176 26.4997 4.47493C28.5275 5.33811 30.2913 6.50955 31.7913 7.98928C33.2913 9.469 34.4788 11.209 35.3538 13.2094C36.2288 15.2098 36.6663 17.3472 36.6663 19.6216C36.6663 21.8959 36.2288 24.0333 35.3538 26.0337C34.4788 28.0341 33.2913 29.7741 31.7913 31.2538C30.2913 32.7336 28.5275 33.905 26.4997 34.7682C24.4719 35.6313 22.3052 36.0629 19.9997 36.0629ZM24.1663 32.1376C25.4719 31.7128 26.6663 31.1031 27.7497 30.3084C26.6663 29.5138 25.4719 28.9041 24.1663 28.4793C22.8608 28.0546 21.4719 27.8422 19.9997 27.8422C18.5275 27.8422 17.1386 28.0546 15.833 28.4793C14.5275 28.9041 13.333 29.5138 12.2497 30.3084C13.333 31.1031 14.5275 31.7128 15.833 32.1376C17.1386 32.5623 18.5275 32.7747 19.9997 32.7747C21.4719 32.7747 22.8608 32.5623 24.1663 32.1376ZM21.7913 17.2787C22.2636 16.8128 22.4997 16.2237 22.4997 15.5112C22.4997 14.7987 22.2636 14.2096 21.7913 13.7438C21.3191 13.2779 20.7219 13.045 19.9997 13.045C19.2775 13.045 18.6802 13.2779 18.208 13.7438C17.7358 14.2096 17.4997 14.7987 17.4997 15.5112C17.4997 16.2237 17.7358 16.8128 18.208 17.2787C18.6802 17.7445 19.2775 17.9774 19.9997 17.9774C20.7219 17.9774 21.3191 17.7445 21.7913 17.2787Z" fill="#1C1B1F"/>
</g>
</svg>
