<svg width="41" height="41" viewBox="0 0 41 41" fill="none" xmlns="http://www.w3.org/2000/svg">
<mask id="mask0_5_81" style="mask-type:alpha" maskUnits="userSpaceOnUse" x="0" y="0" width="41" height="41">
<rect width="41" height="41" fill="#D9D9D9"/>
</mask>
<g mask="url(#mask0_5_81)">
<path d="M1.70801 35.875V18.7917L13.6663 10.25L25.6247 18.7917L23.1903 21.226L13.6663 14.4354L5.12467 20.5V32.4583H8.54134V23.9167H18.7913V35.875H15.3747V27.3333H11.958V35.875H1.70801ZM39.2913 5.125V22.4219C38.8073 21.9094 38.2806 21.4467 37.7111 21.0339C37.1417 20.621 36.5295 20.258 35.8747 19.9448V8.54167H20.4997V10.9333L17.083 8.45625V5.125H39.2913ZM29.0413 15.375H32.458V11.9583H29.0413V15.375ZM30.7497 39.2917C28.3865 39.2917 26.3721 38.4589 24.7064 36.7932C23.0408 35.1276 22.208 33.1132 22.208 30.75C22.208 28.3868 23.0408 26.3724 24.7064 24.7068C26.3721 23.0411 28.3865 22.2083 30.7497 22.2083C33.1129 22.2083 35.1273 23.0411 36.7929 24.7068C38.4585 26.3724 39.2913 28.3868 39.2913 30.75C39.2913 33.1132 38.4585 35.1276 36.7929 36.7932C35.1273 38.4589 33.1129 39.2917 30.7497 39.2917ZM29.8955 35.875H31.6038V31.6042H35.8747V29.8958H31.6038V25.625H29.8955V29.8958H25.6247V31.6042H29.8955V35.875Z" fill="#1C1B1F"/>
</g>
</svg>
